<?xml version="1.0" standalone="no"?>
<!DOCTYPE svg PUBLIC "-//W3C//DTD SVG 20010904//EN"
 "http://www.w3.org/TR/2001/REC-SVG-20010904/DTD/svg10.dtd">
<svg version="1.0" xmlns="http://www.w3.org/2000/svg"
 width="351.000000pt" height="125.000000pt" viewBox="0 0 351.000000 125.000000"
 preserveAspectRatio="xMidYMid meet">

<g transform="translate(0.000000,125.000000) scale(0.100000,-0.100000)"
fill="#000000" stroke="none">
<path d="M25 1204 c25 -61 74 -128 111 -152 19 -13 32 -27 29 -32 -5 -9 6 -41
27 -75 52 -81 73 -108 94 -117 13 -6 24 -20 24 -30 0 -31 77 -155 115 -185 19
-16 35 -35 35 -44 0 -9 9 -36 20 -60 13 -29 18 -58 15 -84 -3 -25 1 -17 10 22
21 92 43 139 57 125 17 -17 469 -17 485 -1 33 33 22 -136 -18 -281 -10 -36
-17 -65 -16 -66 1 -1 20 -4 43 -7 22 -3 117 -31 210 -61 298 -96 305 -98 318
-87 9 7 28 4 64 -9 63 -24 118 -25 197 -5 36 10 62 12 68 6 11 -11 32 -5 342
94 349 111 355 113 355 79 0 -11 15 -14 63 -14 l62 0 18 49 c15 43 23 51 55
62 79 25 137 61 166 100 15 22 25 43 21 47 -4 4 -57 8 -119 9 l-112 1 -18
-101 c-28 -160 -22 -147 -72 -147 -52 0 -51 -4 -29 144 8 55 15 101 15 102 0
2 -52 2 -115 1 l-115 -2 1 30 c1 41 13 72 23 57 5 -9 81 -12 281 -12 l274 0
-5 -30 c-4 -16 -3 -37 1 -47 5 -13 12 -2 28 44 14 38 33 70 49 83 33 25 97
130 105 172 3 16 17 35 33 44 27 16 101 128 115 172 4 13 24 39 45 58 21 19
54 66 74 104 l37 70 -30 0 c-17 0 -50 -6 -73 -14 -24 -8 -90 -29 -148 -46 -58
-18 -170 -54 -250 -80 -359 -118 -379 -123 -470 -122 -79 2 -84 1 -65 -14 12
-9 33 -14 54 -12 l33 4 -7 -50 c-15 -100 -27 -91 120 -91 78 1 145 6 167 13
42 15 88 48 88 64 0 6 -9 3 -19 -7 -20 -17 -20 -17 0 21 10 21 19 45 19 52 0
11 3 12 14 3 8 -7 25 -11 38 -10 46 4 58 -1 58 -23 0 -25 -30 -80 -63 -116
-20 -21 -20 -23 -3 -55 16 -30 17 -13 1 26 -4 9 -3 17 2 17 5 0 10 -6 11 -12
1 -7 8 -38 17 -68 8 -30 14 -66 13 -80 -3 -24 -7 -25 -70 -28 -65 -3 -68 -2
-68 20 0 13 -5 40 -11 61 l-10 38 -160 -7 c-130 -6 -159 -5 -159 6 0 10 -3 11
-11 3 -6 -6 -11 -36 -12 -67 l-2 -56 -58 0 -59 0 6 27 c28 137 55 314 50 327
-5 14 -41 16 -306 16 -266 0 -299 -2 -288 -15 11 -13 56 -15 290 -15 208 0
279 3 282 12 8 24 14 -8 7 -37 -4 -20 -7 -23 -8 -10 -1 14 -7 7 -21 -23 -29
-63 -68 -110 -117 -138 -23 -14 -43 -28 -43 -31 0 -3 20 -28 45 -56 l45 -52
-69 -3 -70 -3 -44 45 -45 45 -99 3 -99 3 3 -30 c2 -29 2 -29 -6 -5 -6 16 -9
19 -10 8 -1 -9 -4 -24 -8 -34 -4 -12 -3 -15 5 -10 7 4 12 1 12 -8 0 -13 -12
-16 -61 -16 l-62 0 7 53 c4 28 15 96 25 149 12 63 15 101 9 110 -8 10 -9 9 -5
-4 3 -9 3 -19 -1 -23 -4 -3 -18 -68 -32 -143 l-25 -137 -59 -3 c-48 -2 -57 -1
-49 10 6 7 13 29 16 48 l5 35 -196 0 c-122 0 -196 -4 -198 -10 -1 -5 -5 -27
-9 -47 l-6 -38 -55 0 c-31 0 -53 4 -50 9 4 5 15 52 26 105 43 208 80 229 413
231 144 1 201 5 210 14 18 18 -435 10 -478 -9 -37 -16 -116 -30 -109 -18 3 4
1 8 -5 8 -5 0 -12 -19 -16 -42 -11 -64 -61 -155 -114 -208 -84 -84 -87 -85
-330 -88 -185 -3 -213 -1 -203 11 7 8 23 74 37 148 14 74 27 144 30 156 l5 23
282 2 c205 2 282 6 285 15 3 8 -36 12 -144 15 l-148 3 -265 87 c-388 126 -520
167 -568 174 l-43 7 16 -39z m115 -10 c47 -15 94 -31 105 -35 11 -5 53 -19 93
-32 39 -13 69 -27 65 -31 -4 -4 1 -4 10 0 11 4 25 0 36 -10 10 -9 22 -16 27
-15 26 4 43 -2 38 -15 -3 -9 2 -16 13 -19 10 -2 3 -3 -14 -1 -18 1 -33 -1 -33
-6 0 -5 -15 -4 -32 1 -18 5 -49 9 -70 9 -20 0 -67 7 -104 16 -37 8 -78 13 -90
10 -13 -4 -26 -1 -30 6 -5 7 -3 8 6 3 9 -5 11 -4 6 3 -4 7 -15 12 -25 12 -10
0 -37 27 -64 65 -49 69 -55 80 -34 72 6 -3 50 -18 97 -33z m3330 21 c0 -12
-93 -130 -101 -127 -5 1 -8 -3 -6 -9 1 -7 -10 -15 -26 -20 -18 -5 -25 -4 -21
3 5 8 -1 9 -17 5 -72 -20 -191 -36 -207 -27 -9 5 -29 11 -44 15 -16 3 -28 10
-28 16 0 6 6 9 14 6 8 -3 27 -2 43 3 15 4 21 9 13 9 -12 1 349 127 373 130 4
1 7 -1 7 -4z m-420 -265 c0 -5 -5 -10 -11 -10 -5 0 -7 5 -4 10 3 6 8 10 11 10
2 0 4 -4 4 -10z m-1387 -468 c-22 -43 -42 -65 -90 -98 -36 -25 -58 -46 -52
-50 7 -4 8 -9 1 -13 -6 -4 1 -19 18 -38 16 -17 30 -29 33 -27 2 2 9 -2 16 -9
9 -12 0 -14 -58 -9 -66 4 -73 7 -116 48 l-45 44 -106 0 c-58 0 -103 -4 -100
-8 3 -5 0 -26 -5 -48 -10 -39 -10 -39 -55 -36 -24 2 -44 9 -44 16 0 6 11 74
25 150 14 77 25 144 25 148 0 4 126 8 279 8 213 0 282 3 288 13 5 8 9 4 11
-12 2 -13 -9 -49 -25 -79z m344 78 c269 0 273 0 273 -20 0 -28 -26 -79 -57
-112 -25 -26 -25 -27 -9 -68 9 -22 16 -58 16 -80 l0 -40 -285 0 -286 0 6 33
c7 46 45 299 45 305 0 4 5 1 12 -6 9 -9 86 -12 285 -12z m365 0 c47 0 47 3 12
-181 l-27 -139 -49 0 c-49 0 -49 0 -44 28 6 28 46 299 46 310 0 3 5 1 12 -6 7
-7 29 -12 50 -12z"/>
<path d="M480 1060 c0 -5 5 -10 11 -10 5 0 7 5 4 10 -3 6 -8 10 -11 10 -2 0
-4 -4 -4 -10z"/>
<path d="M1219 483 c-8 -2 -20 -22 -26 -43 l-10 -40 129 0 c99 0 138 4 164 16
33 16 61 50 50 61 -6 6 -283 11 -307 6z m278 -39 c-15 -13 -33 -24 -40 -24 -7
0 3 9 21 20 17 11 32 25 32 32 0 6 3 8 8 4 4 -4 -6 -19 -21 -32z"/>
<path d="M1796 467 c-3 -12 -6 -25 -6 -29 0 -5 66 -8 148 -8 108 1 154 4 172
15 14 8 19 14 13 15 -7 0 -13 6 -13 14 0 12 -28 14 -154 14 -150 0 -154 0
-160 -21z"/>
<path d="M1776 344 c-3 -9 -6 -20 -6 -25 0 -5 76 -9 177 -9 131 0 174 3 166
11 -6 6 -9 18 -6 25 4 12 -24 14 -160 14 -141 0 -166 -2 -171 -16z"/>
<path d="M1036 863 c-4 -5 -82 -10 -174 -13 l-166 -5 -12 -60 c-6 -33 -15 -68
-19 -79 -8 -17 -2 -18 106 -14 103 3 119 6 167 32 33 19 63 46 82 74 32 49 43
92 16 65z"/>
<path d="M1515 851 c-149 -6 -163 -8 -197 -31 -21 -14 -38 -28 -38 -32 0 -5
87 -8 194 -8 l194 0 10 40 c5 22 7 39 3 38 -3 -1 -78 -4 -166 -7z"/>
<path d="M1928 828 c3 -21 0 -28 -12 -28 -9 0 -16 -4 -16 -10 0 -6 54 -10 141
-10 126 0 145 2 175 21 42 25 45 35 4 14 -44 -23 -50 -18 -10 8 l35 22 -55 2
c-30 2 -102 4 -160 5 l-106 3 4 -27z"/>
<path d="M1911 824 c0 -11 3 -14 6 -6 3 7 2 16 -1 19 -3 4 -6 -2 -5 -13z"/>
<path d="M630 439 c-7 -27 -10 -59 -7 -69 3 -11 2 -18 -2 -16 -3 2 -11 -7 -18
-20 l-11 -24 163 0 c124 0 165 3 174 13 15 19 30 106 24 139 l-5 27 -153 0
-153 0 -12 -50z m37 -95 c-3 -3 -12 -4 -19 -1 -8 3 -5 6 6 6 11 1 17 -2 13 -5z"/>
<path d="M479 325 c-3 -27 -1 -62 4 -77 l9 -28 254 0 c160 0 254 4 254 10 0 6
-96 11 -252 12 l-253 3 -5 65 -5 65 -6 -50z"/>
</g>
</svg>
